<svg xmlns="http://www.w3.org/2000/svg" width="87" height="87" fill="none"><mask id="a" width="87" height="87" x="0" y="0" maskUnits="userSpaceOnUse" style="mask-type:alpha"><path fill="#000" d="M18.296 53.595a1.36 1.36 0 1 0 2.265 1.503 25.52 25.52 0 0 1 21.297-11.453 1.36 1.36 0 1 0 0-2.718 28.233 28.233 0 0 0-23.562 12.668Z"/><path fill="#000" d="M85.64 70.833h-8.156v-1.642a32.072 32.072 0 0 0-9.931-23.319 1.36 1.36 0 1 0-1.885 1.959 29.382 29.382 0 0 1 9.097 21.36v1.642h-62.53v-1.642c.017-16.353 13.27-29.606 29.623-29.624h3.284c2.525-.001 5.04.319 7.485.952a1.36 1.36 0 1 0 .68-2.63 32.327 32.327 0 0 0-5.729-.94v-4.178c0-.751-.609-1.36-1.36-1.36h-5.437c-.75 0-1.36.609-1.36 1.36v4.178C22.565 38.24 9.539 52.284 9.516 69.191v1.642H1.36a1.36 1.36 0 0 0 0 2.719h84.282a1.36 1.36 0 0 0 0-2.719ZM42.14 34.13h2.72v2.719h-2.72v-2.72Z"/><path fill="#000" d="M57.548 30.382c1.265 1.13 2.264 2.021 2.264 3.842 0 1.82-.999 2.712-2.264 3.848a7.435 7.435 0 0 0-3.173 5.864 1.36 1.36 0 0 0 2.719 0c0-1.82.999-2.712 2.264-3.841a7.441 7.441 0 0 0 3.173-5.871 7.438 7.438 0 0 0-3.172-5.87c-1.266-1.13-2.265-2.022-2.265-3.84 0-1.82.999-2.71 2.264-3.84a7.432 7.432 0 0 0 3.173-5.866 1.36 1.36 0 0 0-2.718 0c0 1.817-1 2.707-2.265 3.837a7.433 7.433 0 0 0-3.173 5.869 7.437 7.437 0 0 0 3.173 5.868Z"/><path fill="#000" d="M65.704 30.382c1.266 1.13 2.265 2.021 2.265 3.842 0 1.82-1 2.718-2.265 3.843a7.436 7.436 0 0 0-3.173 5.87 1.36 1.36 0 0 0 2.719 0c0-1.82 1-2.713 2.265-3.842a7.441 7.441 0 0 0 3.172-5.871 7.438 7.438 0 0 0-3.172-5.87c-1.266-1.13-2.265-2.022-2.265-3.84 0-1.82 1-2.71 2.265-3.84a7.432 7.432 0 0 0 3.172-5.866 1.36 1.36 0 0 0-2.718 0c0 1.817-1 2.707-2.265 3.837a7.433 7.433 0 0 0-3.173 5.869 7.438 7.438 0 0 0 3.173 5.868ZM73.86 30.382c1.266 1.13 2.265 2.021 2.265 3.842 0 1.82-1 2.718-2.265 3.843a7.435 7.435 0 0 0-3.172 5.87 1.36 1.36 0 0 0 2.718 0c0-1.82 1-2.713 2.265-3.842a7.442 7.442 0 0 0 3.173-5.871 7.439 7.439 0 0 0-3.173-5.87c-1.266-1.13-2.265-2.022-2.265-3.84 0-1.82 1-2.71 2.265-3.84a7.432 7.432 0 0 0 3.173-5.866 1.36 1.36 0 0 0-2.719 0c0 1.817-1 2.707-2.265 3.837a7.433 7.433 0 0 0-3.172 5.869 7.437 7.437 0 0 0 3.172 5.868Z"/></mask><g mask="url(#a)"><path fill="#BC9060" d="M-16-13h126V91H-16z"/></g></svg>